<mxfile host="Electron" agent="Mozilla/5.0 (Windows NT 10.0; Win64; x64) AppleWebKit/537.36 (KHTML, like Gecko) draw.io/26.2.2 Chrome/134.0.6998.178 Electron/35.1.2 Safari/537.36" version="26.2.2">
  <diagram name="Page-1" id="p77VBC3SQL4qceJNs4or">
    <mxGraphModel dx="788" dy="524" grid="1" gridSize="10" guides="1" tooltips="1" connect="1" arrows="1" fold="1" page="1" pageScale="1" pageWidth="850" pageHeight="1100" math="0" shadow="0">
      <root>
        <mxCell id="0" />
        <mxCell id="1" parent="0" />
        <mxCell id="4A94xKty6DUSBVCZnruW-17" style="edgeStyle=orthogonalEdgeStyle;rounded=0;orthogonalLoop=1;jettySize=auto;html=1;exitX=1;exitY=0.25;exitDx=0;exitDy=0;entryX=0;entryY=0.25;entryDx=0;entryDy=0;" edge="1" parent="1" source="4A94xKty6DUSBVCZnruW-1" target="4A94xKty6DUSBVCZnruW-16">
          <mxGeometry relative="1" as="geometry" />
        </mxCell>
        <mxCell id="4A94xKty6DUSBVCZnruW-1" value="a User" style="html=1;whiteSpace=wrap;" vertex="1" parent="1">
          <mxGeometry x="100" y="120" width="120" height="70" as="geometry" />
        </mxCell>
        <mxCell id="4A94xKty6DUSBVCZnruW-4" value="a User Database" style="html=1;whiteSpace=wrap;" vertex="1" parent="1">
          <mxGeometry x="240" y="260" width="120" height="70" as="geometry" />
        </mxCell>
        <mxCell id="4A94xKty6DUSBVCZnruW-21" style="edgeStyle=orthogonalEdgeStyle;rounded=0;orthogonalLoop=1;jettySize=auto;html=1;exitX=0.25;exitY=1;exitDx=0;exitDy=0;entryX=1;entryY=0.25;entryDx=0;entryDy=0;" edge="1" parent="1" source="4A94xKty6DUSBVCZnruW-16" target="4A94xKty6DUSBVCZnruW-4">
          <mxGeometry relative="1" as="geometry" />
        </mxCell>
        <mxCell id="4A94xKty6DUSBVCZnruW-28" style="edgeStyle=orthogonalEdgeStyle;rounded=0;orthogonalLoop=1;jettySize=auto;html=1;exitX=0;exitY=0.75;exitDx=0;exitDy=0;entryX=1;entryY=0.75;entryDx=0;entryDy=0;" edge="1" parent="1" source="4A94xKty6DUSBVCZnruW-16" target="4A94xKty6DUSBVCZnruW-1">
          <mxGeometry relative="1" as="geometry" />
        </mxCell>
        <mxCell id="4A94xKty6DUSBVCZnruW-16" value="a Login System" style="html=1;whiteSpace=wrap;" vertex="1" parent="1">
          <mxGeometry x="420" y="120" width="120" height="70" as="geometry" />
        </mxCell>
        <mxCell id="4A94xKty6DUSBVCZnruW-18" value="1:enterCredentials()" style="text;html=1;align=center;verticalAlign=middle;resizable=0;points=[];autosize=1;strokeColor=none;fillColor=none;" vertex="1" parent="1">
          <mxGeometry x="230" y="110" width="130" height="30" as="geometry" />
        </mxCell>
        <mxCell id="4A94xKty6DUSBVCZnruW-19" value="" style="curved=1;endArrow=classic;html=1;rounded=0;entryX=1;entryY=0.75;entryDx=0;entryDy=0;exitX=0.75;exitY=1;exitDx=0;exitDy=0;" edge="1" parent="1" source="4A94xKty6DUSBVCZnruW-16" target="4A94xKty6DUSBVCZnruW-16">
          <mxGeometry width="50" height="50" relative="1" as="geometry">
            <mxPoint x="510" y="200" as="sourcePoint" />
            <mxPoint x="555" y="220" as="targetPoint" />
            <Array as="points">
              <mxPoint x="460" y="200" />
              <mxPoint x="520" y="230" />
              <mxPoint x="560" y="200" />
            </Array>
          </mxGeometry>
        </mxCell>
        <mxCell id="4A94xKty6DUSBVCZnruW-20" value="2:validateInputFormat()" style="text;html=1;align=center;verticalAlign=middle;resizable=0;points=[];autosize=1;strokeColor=none;fillColor=none;" vertex="1" parent="1">
          <mxGeometry x="540" y="190" width="150" height="30" as="geometry" />
        </mxCell>
        <mxCell id="4A94xKty6DUSBVCZnruW-22" value="3:checkCredentials()" style="text;html=1;align=center;verticalAlign=middle;resizable=0;points=[];autosize=1;strokeColor=none;fillColor=none;" vertex="1" parent="1">
          <mxGeometry x="360" y="280" width="130" height="30" as="geometry" />
        </mxCell>
        <mxCell id="4A94xKty6DUSBVCZnruW-23" style="edgeStyle=orthogonalEdgeStyle;rounded=0;orthogonalLoop=1;jettySize=auto;html=1;exitX=0.75;exitY=0;exitDx=0;exitDy=0;entryX=0;entryY=1;entryDx=0;entryDy=0;" edge="1" parent="1" source="4A94xKty6DUSBVCZnruW-4" target="4A94xKty6DUSBVCZnruW-16">
          <mxGeometry relative="1" as="geometry">
            <mxPoint x="417" y="200" as="targetPoint" />
          </mxGeometry>
        </mxCell>
        <mxCell id="4A94xKty6DUSBVCZnruW-24" value="4:returnUserStatus()" style="text;html=1;align=center;verticalAlign=middle;resizable=0;points=[];autosize=1;strokeColor=none;fillColor=none;" vertex="1" parent="1">
          <mxGeometry x="320" y="220" width="130" height="30" as="geometry" />
        </mxCell>
        <mxCell id="4A94xKty6DUSBVCZnruW-26" value="" style="curved=1;endArrow=classic;html=1;rounded=0;entryX=1;entryY=0.25;entryDx=0;entryDy=0;" edge="1" parent="1" target="4A94xKty6DUSBVCZnruW-16">
          <mxGeometry width="50" height="50" relative="1" as="geometry">
            <mxPoint x="515" y="120" as="sourcePoint" />
            <mxPoint x="515" y="90" as="targetPoint" />
            <Array as="points">
              <mxPoint x="475" y="100" />
              <mxPoint x="590" y="100" />
              <mxPoint x="650" y="130" />
            </Array>
          </mxGeometry>
        </mxCell>
        <mxCell id="4A94xKty6DUSBVCZnruW-27" value="5:processLoginResult()" style="text;html=1;align=center;verticalAlign=middle;resizable=0;points=[];autosize=1;strokeColor=none;fillColor=none;" vertex="1" parent="1">
          <mxGeometry x="500" y="70" width="150" height="30" as="geometry" />
        </mxCell>
        <mxCell id="4A94xKty6DUSBVCZnruW-29" value="6:displayLoginResult()" style="text;html=1;align=center;verticalAlign=middle;resizable=0;points=[];autosize=1;strokeColor=none;fillColor=none;" vertex="1" parent="1">
          <mxGeometry x="220" y="150" width="140" height="30" as="geometry" />
        </mxCell>
      </root>
    </mxGraphModel>
  </diagram>
</mxfile>
